<svg width="63" height="20" viewBox="0 0 63 20" fill="none" xmlns="http://www.w3.org/2000/svg">
<g clip-path="url(#clip0_4_1214)">
<mask id="mask0_4_1214" style="mask-type:luminance" maskUnits="userSpaceOnUse" x="0" y="0" width="63" height="20">
<path d="M63 0H0V19.935H63V0Z" fill="white"/>
</mask>
<g mask="url(#mask0_4_1214)">
<path d="M42.4396 6.53296H38.7856V19.6672H42.4396V6.53296Z" fill="#BFF009"/>
<path d="M56.0951 6.39461C52.3467 6.39 49.726 8.78067 49.2582 12.1711C48.8709 14.8195 49.9428 17.6762 52.277 19.0564C54.3603 20.3552 57.6178 20.2692 59.3774 18.4675V19.6636H63.0034V13.2323C63.0034 9.45539 59.9102 6.39307 56.0951 6.39307V6.39461ZM56.0951 16.5645C54.2364 16.5645 52.7309 15.0725 52.7309 13.2338C52.7309 11.3952 54.2381 9.90316 56.0951 9.90316C57.9524 9.90316 59.4594 11.3952 59.4594 13.2338C59.4594 15.0725 57.9524 16.5645 56.0951 16.5645Z" fill="#BFF009"/>
<path d="M24.404 4.94847C24.404 4.15413 25.0576 3.50702 25.86 3.50702H28.4653V0H25.86C23.0997 0 20.8614 2.21585 20.8614 4.94847C20.8614 5.66153 21.0148 6.33932 21.289 6.95117C19.1453 7.84824 17.7218 9.75432 17.3903 12.1665C17.003 14.8147 18.0749 17.6716 20.4092 19.0517C22.4926 20.3505 25.75 20.2646 27.5095 18.4628V19.659H31.1357V6.38991H25.8615C25.0591 6.38991 24.4054 5.7428 24.4054 4.94847H24.404ZM27.59 9.89847V13.2291C27.59 15.0693 26.083 16.5599 24.2257 16.5599C22.3686 16.5599 20.8614 15.0677 20.8614 13.2291C20.8614 11.3905 22.3686 9.89847 24.2257 9.89847H27.59Z" fill="#BFF009"/>
<path d="M40.6291 0C40.042 0 39.5573 0.19935 39.1732 0.598049C38.7891 0.996748 38.5969 1.47825 38.5969 2.0395C38.5969 2.60074 38.7891 3.10526 39.1732 3.49476C39.5573 3.88425 40.042 4.07899 40.6291 4.07899C41.2161 4.07899 41.7227 3.88425 42.099 3.49476C42.4739 3.10526 42.6629 2.62068 42.6629 2.0395C42.6629 1.45832 42.4755 0.996748 42.099 0.598049C41.7242 0.19935 41.2332 0 40.6291 0Z" fill="#BFF009"/>
<path d="M8.98386 6.5264L4.38815 11.3951H3.59818V10.9918V0H0V19.6604H3.59818V14.7917H4.38815L8.98386 19.6604H13.3782L7.16075 13.0927L13.3782 6.5264H8.98386Z" fill="#BFF009"/>
</g>
</g>
<defs>
<clipPath id="clip0_4_1214">
<rect width="63" height="20" fill="white"/>
</clipPath>
</defs>
</svg>
