<svg width="20" height="20" viewBox="0 0 20 20" fill="none" xmlns="http://www.w3.org/2000/svg">
<g clip-path="url(#clip0_36_1438)">
<path d="M18.3334 9.23794V10.0046C18.3323 11.8016 17.7504 13.5502 16.6745 14.9895C15.5985 16.4288 14.0861 17.4817 12.3628 17.9912C10.6395 18.5007 8.79774 18.4395 7.11208 17.8168C5.42642 17.194 3.98723 16.043 3.00915 14.5355C2.03108 13.028 1.56651 11.2447 1.68475 9.45154C1.80299 7.65841 2.49769 5.95155 3.66525 4.5855C4.83281 3.21946 6.41068 2.26743 8.16351 1.8714C9.91635 1.47537 11.7502 1.65655 13.3917 2.38794M18.3334 3.33317L10 11.6748L7.50002 9.17484" stroke="white" stroke-width="2" stroke-linecap="round" stroke-linejoin="round"/>
</g>
<defs>
<clipPath id="clip0_36_1438">
<rect width="20" height="20" fill="white"/>
</clipPath>
</defs>
</svg>
