<svg width="21" height="20" viewBox="0 0 21 20" fill="none" xmlns="http://www.w3.org/2000/svg">
<g clipPath="url(#clip0_23_183)">
<path fill-rule="evenodd" clip-rule="evenodd" d="M10.6667 20C16.1895 20 20.6667 15.5229 20.6667 10C20.6667 4.47716 16.1895 0 10.6667 0C5.14381 0 0.666656 4.47716 0.666656 10C0.666656 15.5229 5.14381 20 10.6667 20ZM15.1615 11.872L11.1717 15.8619C10.8927 16.1409 10.4405 16.1409 10.1615 15.8619L6.17166 11.872C5.72168 11.422 6.04038 10.6527 6.67674 10.6527H9.23801V5.35714C9.23801 4.56817 9.87761 3.92857 10.6666 3.92857C11.4556 3.92857 12.0952 4.56817 12.0952 5.35714V10.6527H14.6564C15.2928 10.6527 15.6115 11.422 15.1615 11.872Z" fill="white"/>
</g>
<defs>
<clipPath id="clip0_23_183">
<rect width="20" height="20" fill="white" transform="translate(0.666656)"/>
</clipPath>
</defs>
</svg>
