<svg width="22" height="24" viewBox="0 0 22 24" fill="none" xmlns="http://www.w3.org/2000/svg">
<g clipPath="url(#clip0_21_161)">
<path d="M0.905052 12.0002C0.905052 11.3041 1.18079 10.6364 1.67161 10.1441C2.16243 9.65181 2.82813 9.37524 3.52225 9.37524C4.21638 9.37524 4.88208 9.65181 5.3729 10.1441C5.86372 10.6364 6.13946 11.3041 6.13946 12.0002C6.13946 12.6964 5.86372 13.3641 5.3729 13.8564C4.88208 14.3487 4.21638 14.6252 3.52225 14.6252C2.82813 14.6252 2.16243 14.3487 1.67161 13.8564C1.18079 13.3641 0.905052 12.6964 0.905052 12.0002ZM8.38277 12.0002C8.38277 11.3041 8.65851 10.6364 9.14934 10.1441C9.64016 9.65181 10.3059 9.37524 11 9.37524C11.6941 9.37524 12.3598 9.65181 12.8506 10.1441C13.3414 10.6364 13.6172 11.3041 13.6172 12.0002C13.6172 12.6964 13.3414 13.3641 12.8506 13.8564C12.3598 14.3487 11.6941 14.6252 11 14.6252C10.3059 14.6252 9.64016 14.3487 9.14934 13.8564C8.65851 13.3641 8.38277 12.6964 8.38277 12.0002ZM18.4777 9.37524C19.1718 9.37524 19.8375 9.65181 20.3283 10.1441C20.8192 10.6364 21.0949 11.3041 21.0949 12.0002C21.0949 12.6964 20.8192 13.3641 20.3283 13.8564C19.8375 14.3487 19.1718 14.6252 18.4777 14.6252C17.7836 14.6252 17.1179 14.3487 16.6271 13.8564C16.1362 13.3641 15.8605 12.6964 15.8605 12.0002C15.8605 11.3041 16.1362 10.6364 16.6271 10.1441C17.1179 9.65181 17.7836 9.37524 18.4777 9.37524Z" fill="white"/>
</g>
<defs>
<clipPath id="clip0_21_161">
<rect width="20.9376" height="24" fill="white" transform="translate(0.531189)"/>
</clipPath>
</defs>
</svg>
