<svg width="24" height="24" viewBox="0 0 24 24" fill="none" xmlns="http://www.w3.org/2000/svg">
<g clip-path="url(#clip0_22_166)">
<path d="M11.1 13.8002V21H7.5C6.78392 21 6.09716 20.7155 5.59081 20.2092C5.08446 19.7029 4.8 19.0161 4.8 18.3001V14.7002C4.8 14.4615 4.89482 14.2326 5.0636 14.0638C5.23239 13.895 5.46131 13.8002 5.7 13.8002H11.1ZM18.3 13.8002C18.5387 13.8002 18.7676 13.895 18.9364 14.0638C19.1052 14.2326 19.2 14.4615 19.2 14.7002V18.3001C19.2 19.0161 18.9155 19.7029 18.4092 20.2092C17.9028 20.7155 17.2161 21 16.5 21H12.9V13.8002H18.3ZM16.05 3.00053C16.5815 3.00042 17.1043 3.13477 17.5699 3.39109C18.0354 3.6474 18.4286 4.01734 18.7127 4.46646C18.9968 4.91559 19.1627 5.4293 19.1949 5.95977C19.227 6.49024 19.1245 7.02023 18.8967 7.5004H19.2C19.6774 7.5004 20.1352 7.69003 20.4728 8.02759C20.8104 8.36514 21 8.82297 21 9.30034V10.2003C21 10.6777 20.8104 11.1355 20.4728 11.4731C20.1352 11.8106 19.6774 12.0003 19.2 12.0003H12.9V7.5004H11.1V12.0003H4.8C4.32261 12.0003 3.86477 11.8106 3.52721 11.4731C3.18964 11.1355 3 10.6777 3 10.2003V9.30034C3 8.82297 3.18964 8.36514 3.52721 8.02759C3.86477 7.69003 4.32261 7.5004 4.8 7.5004H5.1033C4.90299 7.07859 4.79937 6.61739 4.8 6.15044C4.8 4.41079 6.2103 3.00053 7.9347 3.00053C9.5142 2.97353 10.9155 3.9833 11.8776 5.64105L12 5.85974C12.9297 4.13719 14.304 3.05723 15.8619 3.00233L16.05 3.00053ZM7.95 4.80048C7.59196 4.80048 7.24858 4.9427 6.99541 5.19587C6.74223 5.44904 6.6 5.7924 6.6 6.15044C6.6 6.50847 6.74223 6.85184 6.99541 7.105C7.24858 7.35817 7.59196 7.5004 7.95 7.5004H10.7787C10.1118 5.78595 9.0246 4.78248 7.95 4.80048ZM16.0347 4.80048C14.9727 4.78248 13.8882 5.78685 13.2213 7.5004H16.05C16.408 7.49837 16.7506 7.35419 17.0024 7.09959C17.2541 6.84499 17.3944 6.50082 17.3924 6.14279C17.3903 5.78475 17.2461 5.44219 16.9915 5.19046C16.7369 4.93873 16.3927 4.79845 16.0347 4.80048Z" fill="white"/>
</g>
<defs>
<clipPath id="clip0_22_166">
<rect width="24" height="24" fill="white"/>
</clipPath>
</defs>
</svg>
