<svg width="12" height="12" viewBox="0 0 12 12" fill="none" xmlns="http://www.w3.org/2000/svg">
<mask id="mask0_49_3921" style="mask-type:alpha" maskUnits="userSpaceOnUse" x="0" y="0" width="12" height="12">
<g clip-path="url(#clip0_49_3921)">
<path d="M5.16666 6.41673C5.3456 6.65595 5.57389 6.85389 5.83605 6.99712C6.09822 7.14036 6.38812 7.22553 6.6861 7.24687C6.98407 7.26821 7.28315 7.22522 7.56305 7.12081C7.84295 7.0164 8.09712 6.85301 8.30833 6.64173L9.55833 5.39173C9.93782 4.99881 10.1478 4.47256 10.1431 3.92631C10.1383 3.38007 9.91921 2.85755 9.53295 2.47128C9.14668 2.08501 8.62415 1.86591 8.07791 1.86116C7.53167 1.85642 7.00541 2.0664 6.61249 2.4459L5.89582 3.1584M6.83332 5.5834C6.65439 5.34418 6.42609 5.14624 6.16393 5.00301C5.90177 4.85978 5.61186 4.7746 5.31389 4.75326C5.01591 4.73192 4.71683 4.77491 4.43693 4.87932C4.15703 4.98374 3.90286 5.14712 3.69166 5.3584L2.44166 6.6084C2.06216 7.00132 1.85217 7.52758 1.85692 8.07382C1.86167 8.62006 2.08077 9.14259 2.46704 9.52886C2.8533 9.91512 3.37583 10.1342 3.92207 10.139C4.46832 10.1437 4.99457 9.93373 5.38749 9.55423L6.09999 8.84173" stroke="white" stroke-width="1.2" stroke-linecap="round" stroke-linejoin="round"/>
</g>
</mask>
<g mask="url(#mask0_49_3921)">
<rect width="12" height="12" fill="white"/>
</g>
<defs>
<clipPath id="clip0_49_3921">
<rect width="10" height="10" fill="white" transform="translate(1 1)"/>
</clipPath>
</defs>
</svg>
