<svg width="24" height="24" viewBox="0 0 24 24" fill="none" xmlns="http://www.w3.org/2000/svg">
<mask id="mask0_19_262" style="mask-type:alpha" maskUnits="userSpaceOnUse" x="0" y="0" width="24" height="24">
<g clipPath="url(#clip0_19_262)">
<g clipPath="url(#clip1_19_262)">
<path d="M16.757 14.6856C18.6087 11.7995 18.2726 7.91626 15.7486 5.39229C12.8369 2.48056 8.11604 2.48056 5.20431 5.39229C2.29258 8.30403 2.29258 13.0248 5.20431 15.9366C7.86033 18.5926 12.0217 18.8258 14.9421 16.6363L18.7076 20.4018C19.2275 20.9218 20.0705 20.9218 20.5905 20.4018C21.1105 19.8819 21.1105 19.0389 20.5905 18.5189L16.7659 14.6943C16.7629 14.6914 16.76 14.6884 16.757 14.6856ZM14.3392 6.80186C16.4724 8.93511 16.4724 12.3938 14.3392 14.527C12.2059 16.6602 8.74724 16.6602 6.61399 14.527C4.48074 12.3938 4.48074 8.93511 6.61399 6.80186C8.74724 4.66862 12.2059 4.66862 14.3392 6.80186Z" fill="black"/>
</g>
</g>
</mask>
<g mask="url(#mask0_19_262)">
<rect width="24" height="24" fill="white"/>
</g>
<defs>
<clipPath id="clip0_19_262">
<rect width="24" height="24" fill="white"/>
</clipPath>
<clipPath id="clip1_19_262">
<rect width="24" height="24" fill="white"/>
</clipPath>
</defs>
</svg>
