<svg width="19" height="20" viewBox="0 0 19 20" fill="none" xmlns="http://www.w3.org/2000/svg">
<g clip-path="url(#clip0_20_353)">
<path d="M14.5297 13.0585L15.9601 8.76741C17.2097 5.01876 17.8344 3.14443 16.845 2.15504C15.8557 1.16565 13.9813 1.79043 10.2327 3.03998L5.94155 4.47035C2.91602 5.47885 1.40326 5.98311 0.973375 6.72256C0.564417 7.42601 0.564417 8.29482 0.973375 8.99825C1.40326 9.73775 2.91602 10.242 5.94155 11.2505C6.3165 11.3755 6.73833 11.2862 7.01911 11.0081L11.6072 6.46254C11.8652 6.20681 12.2818 6.20875 12.5375 6.46687C12.7932 6.72499 12.7913 7.14154 12.5332 7.39726L8.01924 11.8694C7.70983 12.176 7.61183 12.6452 7.74958 13.0585C8.75808 16.084 9.26233 17.5968 10.0018 18.0267C10.7052 18.4357 11.5741 18.4357 12.2775 18.0267C13.017 17.5968 13.5212 16.0841 14.5297 13.0585Z" fill="white"/>
</g>
<defs>
<clipPath id="clip0_20_353">
<rect width="18" height="20" fill="white" transform="translate(0.333313)"/>
</clipPath>
</defs>
</svg>
