<svg width="18" height="20" viewBox="0 0 18 20" fill="none" xmlns="http://www.w3.org/2000/svg">
<path d="M10.2857 3.125C10.2857 2.43359 9.71116 1.875 9 1.875C8.28884 1.875 7.71428 2.43359 7.71428 3.125V8.75H1.92857C1.21741 8.75 0.642853 9.30859 0.642853 10C0.642853 10.6914 1.21741 11.25 1.92857 11.25H7.71428V16.875C7.71428 17.5664 8.28884 18.125 9 18.125C9.71116 18.125 10.2857 17.5664 10.2857 16.875V11.25H16.0714C16.7826 11.25 17.3571 10.6914 17.3571 10C17.3571 9.30859 16.7826 8.75 16.0714 8.75H10.2857V3.125Z" fill="white"/>
</svg>
