<svg width="20" height="20" viewBox="0 0 20 20" fill="none" xmlns="http://www.w3.org/2000/svg">
<g clipPath="url(#clip0_29_748)">
<path d="M20 1.03328C20 0.812271 19.9122 0.600309 19.7559 0.444029C19.5996 0.287749 19.3877 0.199951 19.1667 0.199951H8.81667C7.68333 0.199951 7.15 1.25828 7.15 2.25828C7.15597 5.96228 6.91096 9.66242 6.41667 13.3333C6.40892 13.3812 6.38471 13.4249 6.34819 13.4568C6.31168 13.4888 6.26516 13.507 6.21667 13.5083H3.71667C2.05 13.5083 1.86667 15.2333 1.76667 16.2583C1.66667 17.9 1.44167 18.125 0.833333 18.125C0.61232 18.125 0.400358 18.2127 0.244078 18.369C0.0877974 18.5253 0 18.7373 0 18.9583C0 19.1793 0.0877974 19.3913 0.244078 19.5475C0.400358 19.7038 0.61232 19.7916 0.833333 19.7916H10.4167C12.4 19.7916 12.6833 17.825 12.85 16.6583C12.9917 15.675 13.1 15.2083 13.3333 15.2083H13.675C13.719 15.2077 13.7621 15.2211 13.798 15.2466C13.834 15.272 13.8609 15.3082 13.875 15.35C13.925 15.5083 13.975 15.725 14.0083 15.8833C14.175 16.6666 14.475 18.125 16.25 18.125C19.6417 18.125 20 8.50829 20 4.39162V1.03328ZM10.05 11.25C9.88424 11.25 9.72527 11.1841 9.60806 11.0669C9.49085 10.9497 9.425 10.7907 9.425 10.625C9.425 10.4592 9.49085 10.3002 9.60806 10.183C9.72527 10.0658 9.88424 9.99995 10.05 9.99995H15.05C15.2158 9.99995 15.3747 10.0658 15.4919 10.183C15.6092 10.3002 15.675 10.4592 15.675 10.625C15.675 10.7907 15.6092 10.9497 15.4919 11.0669C15.3747 11.1841 15.2158 11.25 15.05 11.25H10.05ZM9.84167 3.95828C9.84167 3.79252 9.90751 3.63355 10.0247 3.51634C10.1419 3.39913 10.3009 3.33328 10.4667 3.33328H12.1333C12.2991 3.33328 12.4581 3.39913 12.5753 3.51634C12.6925 3.63355 12.7583 3.79252 12.7583 3.95828C12.7583 4.12405 12.6925 4.28302 12.5753 4.40023C12.4581 4.51744 12.2991 4.58328 12.1333 4.58328H10.4667C10.3009 4.58328 10.1419 4.51744 10.0247 4.40023C9.90751 4.28302 9.84167 4.12405 9.84167 3.95828ZM15.4667 7.91662H10.675C10.5092 7.91662 10.3503 7.85077 10.2331 7.73356C10.1158 7.61635 10.05 7.45738 10.05 7.29162C10.05 7.12586 10.1158 6.96689 10.2331 6.84968C10.3503 6.73247 10.5092 6.66662 10.675 6.66662H15.4667C15.6324 6.66662 15.7914 6.73247 15.9086 6.84968C16.0258 6.96689 16.0917 7.12586 16.0917 7.29162C16.0917 7.45738 16.0258 7.61635 15.9086 7.73356C15.7914 7.85077 15.6324 7.91662 15.4667 7.91662ZM11.1917 16.4166C10.9833 17.8916 10.8167 18.125 10.4083 18.125H3.425C3.39298 18.1233 3.36166 18.115 3.33299 18.1006C3.30431 18.0863 3.2789 18.0662 3.25833 18.0416C3.24616 18.0141 3.23988 17.9843 3.23988 17.9541C3.23988 17.924 3.24616 17.8942 3.25833 17.8666C3.37212 17.4042 3.44738 16.9331 3.48333 16.4583C3.49205 16.0344 3.5709 15.6148 3.71667 15.2166H11.2167C11.2481 15.217 11.279 15.2244 11.3072 15.2384C11.3353 15.2524 11.3599 15.2726 11.3792 15.2974C11.3984 15.3223 11.4118 15.3511 11.4183 15.3819C11.4248 15.4126 11.4242 15.4444 11.4167 15.475C11.2833 15.8333 11.2333 16.125 11.1917 16.4166Z" fill="white"/>
</g>
<defs>
<clipPath id="clip0_29_748">
<rect width="20" height="20" fill="white"/>
</clipPath>
</defs>
</svg>
