<svg width="16" height="16" viewBox="0 0 16 16" fill="none" xmlns="http://www.w3.org/2000/svg">
<g clip-path="url(#clip0_381_2044)">
<path d="M15.083 14.8272L9.97385 6.79792L15.0152 1.25217C15.3488 0.876169 15.1502 0.2801 14.6578 0.179244C14.4348 0.133563 14.204 0.207356 14.0489 0.373988L9.24667 5.65612L5.94207 0.46295C5.8223 0.274444 5.6145 0.160225 5.39117 0.160156H1.47363C0.971016 0.159913 0.656616 0.703856 0.907716 1.13926C0.912535 1.14763 0.917547 1.15588 0.922735 1.16403L6.03184 9.19251L0.990478 14.7423C0.647991 15.1102 0.832178 15.7109 1.32201 15.8235C1.55482 15.8771 1.79827 15.7992 1.9568 15.6205L6.75903 10.3384L10.0636 15.5316C10.1844 15.7185 10.392 15.8311 10.6145 15.8303H14.5321C15.0347 15.8301 15.3486 15.2859 15.0972 14.8507C15.0926 14.8428 15.0879 14.8349 15.083 14.8272ZM10.9728 14.5244L2.66277 1.466H5.02961L13.3429 14.5244H10.9728Z" fill="white"/>
</g>
<defs>
<clipPath id="clip0_381_2044">
<rect width="16" height="16" fill="white"/>
</clipPath>
</defs>
</svg>
