<svg width="143" height="36" viewBox="0 0 143 36" fill="none" xmlns="http://www.w3.org/2000/svg">
<path d="M126.564 9.16309L131.995 22.4463L137.576 9.1582L137.705 8.85254H142.227L141.919 9.55273L130.495 35.6328L130.364 35.9326H125.94L129.778 27.2705L121.721 8.85254H126.437L126.564 9.16309ZM130.037 35.4316V35.4326V35.4316ZM31.5938 8.4043C33.2176 8.4043 34.6481 8.72705 35.8662 9.39355C36.535 9.75952 37.112 10.174 37.5898 10.6396V8.85254H41.8857V28.1562H37.5898V26.3691C37.112 26.8347 36.5349 27.2493 35.8662 27.6152C34.6481 28.2817 33.2175 28.6045 31.5938 28.6045C29.802 28.6044 28.1658 28.1662 26.6973 27.2852L26.6943 27.2832C25.2495 26.4028 24.1107 25.1835 23.2812 23.6367C22.4502 22.0869 22.0381 20.3721 22.0381 18.5039C22.0381 16.6359 22.4503 14.9218 23.2812 13.3721C24.1107 11.8253 25.2495 10.606 26.6943 9.72559L26.6973 9.72363C28.1658 8.84255 29.802 8.40438 31.5938 8.4043ZM63.125 8.4043C64.7488 8.4043 66.1793 8.72705 67.3975 9.39355C68.0663 9.75952 68.6432 10.174 69.1211 10.6396V8.85254H73.417V28.1562H69.1211V26.3691C68.6433 26.8347 68.0662 27.2493 67.3975 27.6152C66.1794 28.2817 64.7487 28.6045 63.125 28.6045C61.3333 28.6044 59.697 28.1662 58.2285 27.2852L58.2256 27.2832C56.7808 26.4028 55.642 25.1835 54.8125 23.6367C53.9814 22.0869 53.5694 20.3721 53.5693 18.5039C53.5694 16.6359 53.9816 14.9218 54.8125 13.3721C55.6419 11.8253 56.7808 10.606 58.2256 9.72559L58.2285 9.72363C59.6971 8.84255 61.3332 8.40438 63.125 8.4043ZM109.406 8.4043C111.03 8.4043 112.461 8.72705 113.679 9.39355C114.348 9.75952 114.924 10.174 115.402 10.6396V8.85254H119.698V28.1562H115.402V26.3691C114.925 26.8347 114.347 27.2493 113.679 27.6152C112.461 28.2817 111.03 28.6045 109.406 28.6045C107.615 28.6044 105.978 28.1662 104.51 27.2852L104.507 27.2832C103.062 26.4028 101.923 25.1835 101.094 23.6367C100.263 22.0869 99.8506 20.3721 99.8506 18.5039C99.8506 16.6359 100.263 14.9218 101.094 13.3721C101.923 11.8253 103.062 10.606 104.507 9.72559L104.51 9.72363C105.978 8.84255 107.614 8.40438 109.406 8.4043ZM50.3564 28.1885H46.0605V8.85254H50.3564V28.1885ZM4.6123 15.4932L16.8906 1.69238L17.0391 1.52441H22.5762L11.5527 13.8154L23.2451 28.1562H17.6641L17.5146 27.9697L8.69727 17.0029L4.6123 21.543V28.1562H0.251953V1.52441H4.6123V15.4932ZM87.3398 1.52441C89.5685 1.52441 91.5196 1.90596 93.1777 2.68848C94.8558 3.44919 96.1521 4.54521 97.042 5.98047L97.207 6.25195C98.0057 7.62081 98.4003 9.18156 98.4004 10.9199C98.4004 12.7744 97.9518 14.4275 97.042 15.8604C96.153 17.2941 94.8591 18.3997 93.1836 19.1816L93.1807 19.1826C91.5222 19.9446 89.5702 20.3164 87.3398 20.3164H82.1123V28.1562H77.752V1.52441H87.3398ZM30.9785 28.085C31.0773 28.091 31.1765 28.0965 31.2764 28.0996L31.5938 28.1045C31.3863 28.1045 31.1812 28.0973 30.9785 28.085ZM62.5098 28.085C62.6085 28.091 62.7078 28.0965 62.8076 28.0996L63.125 28.1045C62.9175 28.1045 62.7125 28.0973 62.5098 28.085ZM108.791 28.085C108.89 28.091 108.989 28.0965 109.089 28.0996L109.406 28.1045C109.199 28.1045 108.994 28.0973 108.791 28.085ZM31.6055 28.1035C31.7915 28.1033 31.9744 28.0989 32.1543 28.0898C31.9744 28.0989 31.7915 28.1033 31.6055 28.1035ZM63.1367 28.1035C63.3227 28.1033 63.5056 28.0989 63.6855 28.0898C63.5056 28.0989 63.3227 28.1033 63.1367 28.1035ZM109.418 28.1035C109.604 28.1033 109.787 28.0989 109.967 28.0898C109.787 28.0989 109.604 28.1033 109.418 28.1035ZM32.5771 28.0586C32.6167 28.055 32.6561 28.0519 32.6953 28.0479C32.6561 28.0519 32.6167 28.055 32.5771 28.0586ZM64.1084 28.0586C64.1479 28.055 64.1873 28.0519 64.2266 28.0479C64.1874 28.0519 64.1479 28.055 64.1084 28.0586ZM110.39 28.0586C110.429 28.055 110.469 28.0519 110.508 28.0479C110.469 28.0519 110.429 28.055 110.39 28.0586ZM30.3809 28.0303C30.4133 28.0343 30.4459 28.0373 30.4785 28.041C30.4459 28.0373 30.4133 28.0343 30.3809 28.0303ZM61.9121 28.0303C61.9446 28.0343 61.9772 28.0373 62.0098 28.041C61.9772 28.0373 61.9446 28.0343 61.9121 28.0303ZM108.193 28.0303C108.226 28.0343 108.258 28.0373 108.291 28.041C108.258 28.0373 108.226 28.0343 108.193 28.0303ZM30.0889 27.9893C30.1301 27.9957 30.1715 28.0009 30.2129 28.0068C30.1715 28.0009 30.1301 27.9957 30.0889 27.9893ZM61.6201 27.9893C61.6613 27.9957 61.7027 28.0009 61.7441 28.0068C61.7027 28.0009 61.6613 27.9957 61.6201 27.9893ZM107.901 27.9893C107.943 27.9957 107.984 28.0009 108.025 28.0068C107.984 28.0009 107.943 27.9957 107.901 27.9893ZM33.1299 27.9922C33.1458 27.9898 33.1618 27.9878 33.1777 27.9854C33.1618 27.9878 33.1458 27.9898 33.1299 27.9922ZM64.6611 27.9922C64.6771 27.9898 64.6931 27.9878 64.709 27.9854C64.6931 27.9878 64.6771 27.9898 64.6611 27.9922ZM110.942 27.9922C110.958 27.9898 110.974 27.9878 110.99 27.9854C110.974 27.9878 110.958 27.9898 110.942 27.9922ZM29.79 27.9365C29.8342 27.945 29.8784 27.9531 29.9229 27.9609C29.8784 27.9531 29.8342 27.945 29.79 27.9365ZM61.3213 27.9365C61.3654 27.945 61.4097 27.9531 61.4541 27.9609C61.4097 27.9531 61.3654 27.945 61.3213 27.9365ZM107.603 27.9365C107.647 27.945 107.691 27.9531 107.735 27.9609C107.691 27.9531 107.647 27.945 107.603 27.9365ZM29.4814 27.8721C29.5457 27.8867 29.6101 27.9008 29.6748 27.9141C29.6101 27.9008 29.5457 27.8867 29.4814 27.8721ZM61.0127 27.8721C61.0769 27.8867 61.1413 27.9008 61.2061 27.9141C61.1413 27.9008 61.0769 27.8867 61.0127 27.8721ZM107.294 27.8721C107.358 27.8867 107.423 27.9008 107.487 27.9141C107.423 27.9008 107.358 27.8867 107.294 27.8721ZM33.6094 27.9062C33.6329 27.9013 33.6563 27.8957 33.6797 27.8906C33.6563 27.8957 33.6329 27.9013 33.6094 27.9062ZM65.1406 27.9062C65.1642 27.9013 65.1875 27.8957 65.2109 27.8906C65.1875 27.8957 65.1642 27.9013 65.1406 27.9062ZM111.422 27.9062C111.445 27.9013 111.469 27.8957 111.492 27.8906C111.469 27.8957 111.445 27.9013 111.422 27.9062ZM29.209 27.8057C29.267 27.8209 29.3254 27.8346 29.3838 27.8486C29.3254 27.8346 29.267 27.8209 29.209 27.8057ZM60.7402 27.8057C60.7982 27.8209 60.8566 27.8346 60.915 27.8486C60.8566 27.8346 60.7982 27.8209 60.7402 27.8057ZM107.021 27.8057C107.079 27.8209 107.138 27.8346 107.196 27.8486C107.138 27.8346 107.079 27.8209 107.021 27.8057ZM34.0654 27.7969C34.1021 27.7869 34.1384 27.776 34.1748 27.7656C34.1384 27.776 34.1021 27.7869 34.0654 27.7969ZM65.5967 27.7969C65.6334 27.7869 65.6697 27.776 65.7061 27.7656C65.6697 27.776 65.6334 27.7869 65.5967 27.7969ZM111.878 27.7969C111.915 27.7869 111.951 27.776 111.987 27.7656C111.951 27.776 111.915 27.7869 111.878 27.7969ZM28.917 27.7236C28.9767 27.7415 29.0365 27.7588 29.0967 27.7754C29.0365 27.7588 28.9767 27.7415 28.917 27.7236ZM60.4482 27.7236C60.5079 27.7415 60.5678 27.7588 60.6279 27.7754C60.5678 27.7588 60.5079 27.7415 60.4482 27.7236ZM106.729 27.7236C106.789 27.7415 106.849 27.7588 106.909 27.7754C106.849 27.7588 106.789 27.7415 106.729 27.7236ZM28.6367 27.6338C28.6989 27.6548 28.7615 27.6747 28.8242 27.6943C28.7615 27.6747 28.6989 27.6548 28.6367 27.6338ZM60.168 27.6338C60.2302 27.6548 60.2927 27.6747 60.3555 27.6943C60.2927 27.6747 60.2302 27.6548 60.168 27.6338ZM106.449 27.6338C106.511 27.6548 106.574 27.6747 106.637 27.6943C106.574 27.6747 106.511 27.6548 106.449 27.6338ZM35.626 27.1758C35.2796 27.3653 34.9128 27.5248 34.5264 27.6562C34.8341 27.5516 35.1298 27.4305 35.4121 27.2891L35.626 27.1768V27.1758ZM67.1572 27.1758C66.8108 27.3653 66.4441 27.5248 66.0576 27.6562C66.3654 27.5516 66.6611 27.4305 66.9434 27.2891L67.1572 27.1768V27.1758ZM113.438 27.1758C113.092 27.3653 112.725 27.5248 112.339 27.6562C112.647 27.5516 112.942 27.4305 113.225 27.2891L113.438 27.1768V27.1758ZM28.4082 27.5527C28.4463 27.5668 28.4842 27.5812 28.5225 27.5947C28.4842 27.5812 28.4463 27.5668 28.4082 27.5527ZM59.9395 27.5527C59.9775 27.5668 60.0154 27.5812 60.0537 27.5947C60.0154 27.5812 59.9775 27.5668 59.9395 27.5527ZM106.221 27.5527C106.259 27.5668 106.297 27.5812 106.335 27.5947C106.297 27.5812 106.259 27.5668 106.221 27.5527ZM28.1025 27.4336C28.1516 27.4539 28.2005 27.4747 28.25 27.4941C28.2005 27.4747 28.1516 27.4539 28.1025 27.4336ZM59.6338 27.4336C59.6829 27.4539 59.7318 27.4747 59.7812 27.4941C59.7318 27.4747 59.6829 27.4539 59.6338 27.4336ZM105.915 27.4336C105.964 27.4539 106.013 27.4747 106.062 27.4941C106.013 27.4747 105.964 27.4539 105.915 27.4336ZM27.7988 27.3008C27.8628 27.3302 27.9266 27.3599 27.9912 27.3877C27.9266 27.3599 27.8628 27.3302 27.7988 27.3008ZM59.3301 27.3008C59.3941 27.3302 59.4579 27.3599 59.5225 27.3877C59.4579 27.3599 59.3941 27.3302 59.3301 27.3008ZM105.611 27.3008C105.675 27.3302 105.739 27.3599 105.804 27.3877C105.739 27.3599 105.675 27.3302 105.611 27.3008ZM27.4678 27.1406C27.2944 27.0517 27.1228 26.9577 26.9541 26.8564C27.1228 26.9577 27.2944 27.0517 27.4678 27.1406ZM58.999 27.1406C58.8256 27.0517 58.654 26.9577 58.4854 26.8564C58.654 26.9577 58.8256 27.0517 58.999 27.1406ZM105.28 27.1406C105.107 27.0517 104.935 26.9577 104.767 26.8564C104.935 26.9577 105.107 27.0517 105.28 27.1406ZM36.7676 26.4258C36.7099 26.4717 36.6491 26.5147 36.5889 26.5596C36.7663 26.4275 36.9346 26.2935 37.0898 26.1523L36.7676 26.4258ZM68.2988 26.4258C68.2411 26.4717 68.1804 26.5147 68.1201 26.5596C68.2975 26.4275 68.4658 26.2935 68.6211 26.1523L68.2988 26.4258ZM114.58 26.4258C114.522 26.4717 114.462 26.5147 114.401 26.5596C114.579 26.4275 114.747 26.2935 114.902 26.1523L114.58 26.4258ZM109.694 12.3164C108.586 12.3165 107.613 12.5818 106.761 13.1035L106.456 13.3096C105.765 13.8133 105.212 14.4752 104.798 15.3037C104.324 16.2514 104.083 17.3153 104.083 18.5039C104.083 19.6927 104.324 20.7573 104.798 21.7051C105.271 22.651 105.925 23.379 106.759 23.9033C107.611 24.4259 108.585 24.6923 109.694 24.6924C110.827 24.6924 111.811 24.4249 112.662 23.9033C113.547 23.3528 114.233 22.6185 114.726 21.6934C115.217 20.7481 115.467 19.6878 115.467 18.5039C115.467 17.3183 115.216 16.2693 114.726 15.3467L114.724 15.3438C114.232 14.399 113.548 13.6676 112.67 13.1406L112.658 13.1338C111.807 12.5923 110.824 12.3164 109.694 12.3164ZM31.8818 12.3164C30.7735 12.3165 29.8004 12.5818 28.9482 13.1035L28.6436 13.3096C27.9523 13.8133 27.3996 14.4752 26.9854 15.3037C26.5115 16.2514 26.2706 17.3153 26.2705 18.5039C26.2705 19.6927 26.5114 20.7573 26.9854 21.7051C27.4584 22.651 28.1121 23.379 28.9463 23.9033C29.7989 24.4259 30.7726 24.6923 31.8818 24.6924C33.0141 24.6924 33.9983 24.4249 34.8496 23.9033C35.7344 23.3528 36.4209 22.6185 36.9131 21.6934C37.4046 20.7481 37.6543 19.6878 37.6543 18.5039C37.6542 17.3183 37.4038 16.2693 36.9131 15.3467L36.9111 15.3438C36.4191 14.399 35.7356 13.6676 34.8574 13.1406L34.8457 13.1338C33.9947 12.5923 33.0118 12.3164 31.8818 12.3164ZM63.4131 12.3164C62.3048 12.3165 61.3316 12.5818 60.4795 13.1035L60.1748 13.3096C59.4836 13.8133 58.9309 14.4752 58.5166 15.3037C58.0428 16.2514 57.8018 17.3153 57.8018 18.5039C57.8018 19.6927 58.0427 20.7573 58.5166 21.7051C58.9897 22.651 59.6434 23.379 60.4775 23.9033C61.3302 24.4259 62.3039 24.6923 63.4131 24.6924C64.5454 24.6924 65.5296 24.4249 66.3809 23.9033C67.2657 23.3528 67.9522 22.6185 68.4443 21.6934C68.9358 20.7481 69.1855 19.6878 69.1855 18.5039C69.1855 17.3183 68.9351 16.2693 68.4443 15.3467L68.4424 15.3438C67.9503 14.399 67.2669 13.6676 66.3887 13.1406L66.377 13.1338C65.526 12.5923 64.5431 12.3164 63.4131 12.3164ZM23.874 23.6729C23.9094 23.7341 23.946 23.7944 23.9824 23.8545C23.8929 23.7065 23.8058 23.5555 23.7227 23.4004L23.874 23.6729ZM55.4053 23.6729C55.4406 23.7341 55.4773 23.7944 55.5137 23.8545C55.4241 23.7065 55.3371 23.5555 55.2539 23.4004L55.4053 23.6729ZM101.687 23.6729C101.722 23.7341 101.759 23.7944 101.795 23.8545C101.705 23.7065 101.618 23.5555 101.535 23.4004L101.687 23.6729ZM88.3271 19.7881C88.3833 19.7851 88.4394 19.7828 88.4951 19.7793C88.4394 19.7828 88.3833 19.7851 88.3271 19.7881ZM89.0303 19.7363C89.0783 19.7317 89.1261 19.7267 89.1738 19.7217C89.1261 19.7267 89.0783 19.7317 89.0303 19.7363ZM89.71 19.6553C89.7531 19.6491 89.796 19.6423 89.8389 19.6357C89.796 19.6423 89.7531 19.6491 89.71 19.6553ZM90.7207 19.4727C90.6081 19.4976 90.4947 19.5227 90.3799 19.5449C90.4947 19.5227 90.6081 19.4976 90.7207 19.4727ZM90.7568 19.4639C90.8586 19.441 90.9596 19.4176 91.0596 19.3926C90.9596 19.4176 90.8586 19.441 90.7568 19.4639ZM91.0859 19.3857C91.1855 19.3606 91.2841 19.334 91.3818 19.3066C91.2841 19.334 91.1855 19.3606 91.0859 19.3857ZM91.4473 19.2881C91.5247 19.2659 91.6015 19.2433 91.6777 19.2197C91.6015 19.2433 91.5247 19.2659 91.4473 19.2881ZM92.377 18.9785C92.4766 18.9402 92.5754 18.9014 92.6729 18.8604L92.9717 18.7285C92.778 18.8175 92.5796 18.9005 92.377 18.9785ZM22.5449 18.1016C22.543 18.1597 22.5421 18.2179 22.541 18.2764C22.5421 18.2179 22.543 18.1597 22.5449 18.1016ZM54.0762 18.1016C54.0742 18.1597 54.0734 18.2179 54.0723 18.2764C54.0734 18.2179 54.0742 18.1597 54.0762 18.1016ZM100.357 18.1016C100.355 18.1597 100.355 18.2179 100.354 18.2764C100.355 18.2179 100.355 18.1597 100.357 18.1016ZM95.084 17.3838C95.0079 17.4492 94.9307 17.514 94.8516 17.5771C95.0097 17.4511 95.1615 17.32 95.3076 17.1846L95.084 17.3838ZM22.5771 17.5479C22.5733 17.5943 22.5706 17.6409 22.5674 17.6875C22.5706 17.6409 22.5733 17.5943 22.5771 17.5479ZM54.1084 17.5479C54.1046 17.5943 54.1019 17.6409 54.0986 17.6875C54.1019 17.6409 54.1046 17.5943 54.1084 17.5479ZM100.39 17.5479C100.386 17.5943 100.383 17.6409 100.38 17.6875C100.383 17.6409 100.386 17.5943 100.39 17.5479ZM22.6094 17.2188C22.605 17.2574 22.6016 17.2962 22.5977 17.335C22.6016 17.2962 22.605 17.2574 22.6094 17.2188ZM54.1406 17.2188C54.1363 17.2574 54.1329 17.2962 54.1289 17.335C54.1329 17.2962 54.1363 17.2574 54.1406 17.2188ZM100.422 17.2188C100.418 17.2574 100.414 17.2962 100.41 17.335C100.414 17.2962 100.418 17.2574 100.422 17.2188ZM22.6533 16.877C22.6422 16.9537 22.6326 17.0309 22.623 17.1084C22.6326 17.0309 22.6422 16.9537 22.6533 16.877ZM54.1846 16.877C54.1734 16.9537 54.1638 17.0309 54.1543 17.1084C54.1638 17.0309 54.1734 16.9537 54.1846 16.877ZM100.466 16.877C100.455 16.9537 100.445 17.0309 100.436 17.1084C100.445 17.0309 100.455 16.9537 100.466 16.877ZM87.7236 16.7617C87.5149 16.7704 87.3017 16.7764 87.084 16.7764C87.3017 16.7764 87.5149 16.7703 87.7236 16.7617ZM96.1113 16.3164V16.3174V16.3164ZM22.7588 16.2764C22.7457 16.3399 22.7336 16.4038 22.7217 16.4678C22.7336 16.4038 22.7457 16.3399 22.7588 16.2764ZM54.29 16.2764C54.277 16.3399 54.2648 16.4038 54.2529 16.4678C54.2648 16.4038 54.277 16.3399 54.29 16.2764ZM100.571 16.2764C100.558 16.3399 100.546 16.4038 100.534 16.4678C100.546 16.4038 100.558 16.3399 100.571 16.2764ZM82.1123 16.2764H87.084C89.3661 16.2764 91.0676 15.7877 92.251 14.876C93.4344 13.9592 94.04 12.6635 94.04 10.9199C94.04 9.17592 93.4341 7.89378 92.2539 6.99902L92.2471 6.99316C91.0641 6.06231 89.3642 5.56446 87.084 5.56445H82.1123V16.2764ZM22.8193 16.001C22.8096 16.0422 22.8002 16.0836 22.791 16.125C22.8002 16.0836 22.8097 16.0422 22.8193 16.001ZM54.3506 16.001C54.3409 16.0422 54.3315 16.0836 54.3223 16.125C54.3314 16.0836 54.3409 16.0422 54.3506 16.001ZM100.632 16.001C100.622 16.0422 100.613 16.0836 100.604 16.125C100.613 16.0836 100.622 16.0422 100.632 16.001ZM22.8975 15.6914C22.8803 15.7554 22.8626 15.8193 22.8467 15.8838C22.8626 15.8193 22.8803 15.7554 22.8975 15.6914ZM54.4287 15.6914C54.4115 15.7554 54.3939 15.8193 54.3779 15.8838C54.3939 15.8193 54.4115 15.7554 54.4287 15.6914ZM100.71 15.6914C100.693 15.7554 100.675 15.8193 100.659 15.8838C100.675 15.8193 100.693 15.7554 100.71 15.6914ZM96.9219 15.0752C96.8281 15.2508 96.7273 15.4229 96.6201 15.5918C96.5681 15.6758 96.515 15.7592 96.46 15.8408L96.6201 15.5928C96.7275 15.4237 96.8281 15.251 96.9219 15.0752ZM91.916 15.6982C91.9587 15.6735 92.0022 15.6506 92.0439 15.625L92.0605 15.6143C92.0133 15.6434 91.9644 15.6702 91.916 15.6982ZM22.9746 15.4199C22.9591 15.4716 22.9434 15.5232 22.9287 15.5752C22.9434 15.5232 22.9591 15.4716 22.9746 15.4199ZM54.5059 15.4199C54.4904 15.4716 54.4746 15.5232 54.46 15.5752C54.4746 15.5232 54.4904 15.4716 54.5059 15.4199ZM100.787 15.4199C100.772 15.4716 100.756 15.5232 100.741 15.5752C100.756 15.5232 100.772 15.4716 100.787 15.4199ZM23.0635 15.1377C23.0463 15.1893 23.029 15.241 23.0127 15.293C23.029 15.241 23.0463 15.1893 23.0635 15.1377ZM54.5947 15.1377C54.5775 15.1893 54.5603 15.241 54.5439 15.293C54.5603 15.241 54.5775 15.1893 54.5947 15.1377ZM100.876 15.1377C100.859 15.1893 100.842 15.241 100.825 15.293C100.842 15.241 100.859 15.1893 100.876 15.1377ZM97.0938 14.7275C97.1194 14.6733 97.1455 14.6193 97.1699 14.5645C97.1455 14.6193 97.1194 14.6733 97.0938 14.7275ZM23.1602 14.8643C23.1455 14.9044 23.1294 14.944 23.1152 14.9844C23.1294 14.944 23.1455 14.9044 23.1602 14.8643ZM54.6914 14.8643C54.6767 14.9044 54.6607 14.944 54.6465 14.9844C54.6607 14.944 54.6767 14.9044 54.6914 14.8643ZM100.973 14.8643C100.958 14.9044 100.942 14.944 100.928 14.9844C100.942 14.944 100.958 14.9044 100.973 14.8643ZM23.3203 14.4512C23.2859 14.5332 23.2538 14.6162 23.2217 14.6992C23.2538 14.6162 23.2859 14.5332 23.3203 14.4512ZM54.8516 14.4512C54.8172 14.5332 54.785 14.6162 54.7529 14.6992C54.785 14.6162 54.8172 14.5332 54.8516 14.4512ZM101.133 14.4512C101.098 14.5332 101.066 14.6162 101.034 14.6992C101.066 14.6162 101.098 14.5332 101.133 14.4512ZM97.2334 14.417C97.2481 14.382 97.2622 14.3468 97.2764 14.3115C97.2621 14.3467 97.2481 14.382 97.2334 14.417ZM97.3379 14.1562C97.3507 14.1225 97.3636 14.0887 97.376 14.0547C97.3636 14.0887 97.3507 14.1225 97.3379 14.1562ZM97.4375 13.876C97.4481 13.8445 97.4585 13.8129 97.4688 13.7812C97.4585 13.8129 97.4481 13.8445 97.4375 13.876ZM97.5127 13.6436C97.5304 13.5855 97.548 13.5274 97.5645 13.4688C97.548 13.5274 97.5304 13.5855 97.5127 13.6436ZM29.792 12.1533C29.4042 12.2883 29.0344 12.4638 28.6826 12.6797C28.3387 12.8957 28.0233 13.1439 27.7363 13.4229C28.0234 13.144 28.3387 12.8966 28.6826 12.6807C28.8001 12.6086 28.9195 12.5406 29.041 12.4775C29.2833 12.3517 29.5337 12.2442 29.792 12.1543V12.1533ZM61.3232 12.1533C60.9355 12.2883 60.5657 12.4638 60.2139 12.6797C59.8699 12.8957 59.5545 13.1439 59.2676 13.4229C59.5546 13.144 59.87 12.8966 60.2139 12.6807C60.3313 12.6086 60.4508 12.5406 60.5723 12.4775C60.8146 12.3517 61.065 12.2442 61.3232 12.1543V12.1533ZM107.604 12.1533C107.217 12.2883 106.847 12.4638 106.495 12.6797C106.151 12.8957 105.836 13.1439 105.549 13.4229C105.836 13.144 106.151 12.8966 106.495 12.6807C106.613 12.6086 106.732 12.5406 106.854 12.4775C107.096 12.3517 107.346 12.2442 107.604 12.1543V12.1533ZM23.8721 13.3369C23.9362 13.2256 24.0037 13.1172 24.0713 13.0098C24.0037 13.1172 23.9362 13.2256 23.8721 13.3369ZM55.4033 13.3369C55.4674 13.2256 55.5349 13.1172 55.6025 13.0098C55.5349 13.1172 55.4674 13.2256 55.4033 13.3369ZM101.685 13.3369C101.749 13.2256 101.816 13.1172 101.884 13.0098C101.816 13.1172 101.749 13.2256 101.685 13.3369ZM97.5977 13.3477C97.6146 13.2836 97.631 13.2191 97.6465 13.1543C97.6309 13.2191 97.6146 13.2836 97.5977 13.3477ZM97.666 13.0693C97.6825 12.9975 97.6982 12.9253 97.7129 12.8525C97.6982 12.9253 97.6825 12.9975 97.666 13.0693ZM97.7256 12.7852C97.7373 12.7248 97.7493 12.6644 97.7598 12.6035C97.7492 12.6644 97.7373 12.7248 97.7256 12.7852ZM24.3359 12.6094C24.3297 12.6182 24.3246 12.6278 24.3184 12.6367C24.3246 12.6278 24.3297 12.6182 24.3359 12.6094ZM55.8672 12.6094C55.861 12.6182 55.8558 12.6278 55.8496 12.6367C55.8558 12.6278 55.861 12.6182 55.8672 12.6094ZM102.148 12.6094C102.142 12.6182 102.137 12.6278 102.131 12.6367C102.137 12.6278 102.142 12.6182 102.148 12.6094ZM24.5176 12.3623C24.4905 12.3983 24.4632 12.4342 24.4365 12.4707C24.4632 12.4342 24.4905 12.3983 24.5176 12.3623ZM56.0488 12.3623C56.0217 12.3983 55.9944 12.4342 55.9678 12.4707C55.9944 12.4342 56.0217 12.3983 56.0488 12.3623ZM102.33 12.3623C102.303 12.3983 102.276 12.4342 102.249 12.4707C102.276 12.4342 102.303 12.3983 102.33 12.3623ZM97.7832 12.4609C97.7905 12.4142 97.7971 12.3673 97.8037 12.3203C97.7971 12.3673 97.7905 12.4142 97.7832 12.4609ZM33.4775 12.0078C33.7001 12.0642 33.917 12.1325 34.1279 12.2139C33.917 12.1325 33.7001 12.0642 33.4775 12.0078ZM65.0088 12.0078C65.2314 12.0642 65.4482 12.1325 65.6592 12.2139C65.4482 12.1325 65.2313 12.0642 65.0088 12.0078ZM111.29 12.0078C111.513 12.0642 111.729 12.1325 111.94 12.2139C111.729 12.1325 111.513 12.0642 111.29 12.0078ZM24.6865 12.1445C24.6696 12.1657 24.6525 12.1867 24.6357 12.208C24.6525 12.1867 24.6696 12.1657 24.6865 12.1445ZM56.2178 12.1445C56.2008 12.1657 56.1838 12.1867 56.167 12.208C56.1838 12.1867 56.2008 12.1657 56.2178 12.1445ZM102.499 12.1445C102.482 12.1657 102.465 12.1867 102.448 12.208C102.465 12.1867 102.482 12.1657 102.499 12.1445ZM24.8711 11.9219C24.8526 11.9434 24.8337 11.9646 24.8154 11.9863C24.8337 11.9646 24.8526 11.9434 24.8711 11.9219ZM56.4023 11.9219C56.3839 11.9434 56.365 11.9646 56.3467 11.9863C56.365 11.9646 56.3839 11.9434 56.4023 11.9219ZM102.684 11.9219C102.665 11.9434 102.646 11.9646 102.628 11.9863C102.646 11.9646 102.665 11.9434 102.684 11.9219ZM25.0508 11.7178C25.0349 11.7351 25.0196 11.753 25.0039 11.7705C25.0196 11.753 25.0349 11.7351 25.0508 11.7178ZM56.582 11.7178C56.5662 11.7351 56.5509 11.753 56.5352 11.7705C56.5509 11.753 56.5662 11.7351 56.582 11.7178ZM102.863 11.7178C102.847 11.7351 102.832 11.753 102.816 11.7705C102.832 11.753 102.847 11.7351 102.863 11.7178ZM25.2695 11.4873C25.2413 11.516 25.2134 11.5451 25.1855 11.5742C25.2134 11.5451 25.2413 11.516 25.2695 11.4873ZM56.8008 11.4873C56.7726 11.516 56.7446 11.5451 56.7168 11.5742C56.7446 11.5451 56.7726 11.516 56.8008 11.4873ZM103.082 11.4873C103.054 11.516 103.026 11.5451 102.998 11.5742C103.026 11.5451 103.054 11.516 103.082 11.4873ZM25.4648 11.2939C25.4311 11.3262 25.3975 11.3588 25.3643 11.3916C25.3975 11.3588 25.4311 11.3262 25.4648 11.2939ZM56.9961 11.2939C56.9623 11.3262 56.9288 11.3588 56.8955 11.3916C56.9288 11.3588 56.9623 11.3262 56.9961 11.2939ZM103.277 11.2939C103.244 11.3262 103.21 11.3588 103.177 11.3916C103.21 11.3588 103.244 11.3262 103.277 11.2939ZM25.6455 11.127C25.6263 11.1442 25.6069 11.1612 25.5879 11.1787C25.6069 11.1612 25.6263 11.1442 25.6455 11.127ZM57.1768 11.127C57.1576 11.1442 57.1382 11.1612 57.1191 11.1787C57.1382 11.1612 57.1576 11.1442 57.1768 11.127ZM103.458 11.127C103.439 11.1442 103.419 11.1612 103.4 11.1787C103.419 11.1612 103.439 11.1442 103.458 11.127ZM36.0361 10.0703C36.4308 10.3141 36.7821 10.5757 37.0898 10.8555C36.7821 10.5757 36.4307 10.3141 36.0361 10.0703ZM67.5674 10.0703C67.962 10.3141 68.3133 10.5757 68.6211 10.8555C68.3134 10.5757 67.962 10.3141 67.5674 10.0703ZM113.849 10.0703C114.243 10.3141 114.595 10.5757 114.902 10.8555C114.595 10.5757 114.243 10.3141 113.849 10.0703ZM97.8564 9.96094C97.8836 10.2528 97.8976 10.5509 97.8994 10.8555C97.8976 10.5509 97.8836 10.2528 97.8564 9.96094ZM26.0742 10.7646C26.0555 10.7795 26.0362 10.7936 26.0176 10.8086C26.0362 10.7936 26.0555 10.7795 26.0742 10.7646ZM57.6055 10.7646C57.5867 10.7795 57.5674 10.7936 57.5488 10.8086C57.5674 10.7936 57.5867 10.7795 57.6055 10.7646ZM103.887 10.7646C103.868 10.7795 103.849 10.7936 103.83 10.8086C103.849 10.7936 103.868 10.7795 103.887 10.7646ZM26.5664 10.4023C26.4679 10.4696 26.3716 10.5395 26.2764 10.6104C26.3716 10.5395 26.4679 10.4696 26.5664 10.4023ZM58.0977 10.4023C57.9991 10.4696 57.9029 10.5395 57.8076 10.6104C57.9029 10.5395 57.9991 10.4696 58.0977 10.4023ZM104.379 10.4023C104.28 10.4696 104.184 10.5395 104.089 10.6104C104.184 10.5395 104.28 10.4696 104.379 10.4023ZM97.8086 9.55273C97.799 9.4824 97.7895 9.41234 97.7783 9.34277C97.7895 9.41233 97.799 9.48241 97.8086 9.55273ZM97.7627 9.25684C97.75 9.18221 97.7372 9.10791 97.7227 9.03418C97.7372 9.10791 97.75 9.18221 97.7627 9.25684ZM97.7021 8.93652C97.6914 8.88489 97.6806 8.83341 97.6689 8.78223C97.6806 8.83341 97.6914 8.8849 97.7021 8.93652ZM97.6357 8.64062C97.6229 8.58821 97.6085 8.53631 97.5947 8.48438C97.6085 8.53631 97.6229 8.58822 97.6357 8.64062ZM97.5605 8.3584C97.543 8.29621 97.5248 8.23436 97.5059 8.17285C97.5248 8.23435 97.543 8.29621 97.5605 8.3584ZM97.4795 8.08887C97.4634 8.03849 97.4467 7.98839 97.4297 7.93848C97.4467 7.98839 97.4634 8.03849 97.4795 8.08887ZM91.4814 5.92871C91.8721 6.12073 92.2303 6.34457 92.5557 6.60059C92.8035 6.78844 93.0281 6.99141 93.2295 7.20996C93.3639 7.35578 93.4878 7.50848 93.6016 7.66797C93.3175 7.26941 92.9688 6.91282 92.5557 6.59961C92.2304 6.34371 91.872 6.12065 91.4814 5.92871ZM97.3799 7.79492C97.3636 7.75003 97.3462 7.70564 97.3291 7.66113C97.3462 7.70564 97.3636 7.75003 97.3799 7.79492ZM97.2832 7.54297C97.2524 7.46623 97.2206 7.39003 97.1875 7.31445C97.2206 7.39003 97.2524 7.46624 97.2832 7.54297ZM97.0527 7.02344C96.9666 6.84676 96.8747 6.67303 96.7754 6.50293L96.9199 6.76172C96.966 6.84803 97.0099 6.9355 97.0527 7.02344ZM96.3604 5.85938C96.3393 5.82958 96.3194 5.79899 96.2979 5.76953C96.3194 5.79899 96.3393 5.82958 96.3604 5.85938ZM48.1924 0.404297C48.9471 0.404297 49.5985 0.659096 50.1045 1.18164C50.636 1.6866 50.9003 2.33237 50.9004 3.08008C50.9003 3.82749 50.6373 4.47895 50.1143 5.00195C49.6039 5.51222 48.948 5.75586 48.1924 5.75586C47.453 5.75577 46.8049 5.50908 46.2803 5.01074L46.2617 4.99219C45.7636 4.46761 45.5167 3.81933 45.5166 3.08008C45.5167 2.34058 45.7646 1.69736 46.2715 1.19043C46.7944 0.667675 47.4452 0.404386 48.1924 0.404297ZM90.5479 5.55078C90.6576 5.58673 90.7654 5.62413 90.8711 5.66406L90.5479 5.5498C90.438 5.51381 90.3259 5.48024 90.2119 5.44824L90.5479 5.55078ZM96.2119 5.65625C96.1821 5.61704 96.1526 5.57767 96.1221 5.53906C96.1526 5.57767 96.1821 5.61703 96.2119 5.65625ZM96.0566 5.45801C96.0181 5.41068 95.9791 5.36377 95.9395 5.31738C95.9791 5.36377 96.0181 5.41068 96.0566 5.45801ZM95.877 5.24609C95.8339 5.19709 95.7904 5.14853 95.7461 5.10059C95.7904 5.14853 95.834 5.19708 95.877 5.24609ZM48.4951 5.2373C48.5387 5.23255 48.5817 5.22757 48.624 5.2207C48.5817 5.2276 48.5387 5.23254 48.4951 5.2373ZM48.7061 5.20508C48.7457 5.1972 48.7847 5.18852 48.8232 5.17871C48.7847 5.18855 48.7457 5.19717 48.7061 5.20508ZM48.9121 5.1543C48.9476 5.14365 48.9822 5.1315 49.0166 5.11914C48.9822 5.13153 48.9475 5.14362 48.9121 5.1543ZM49.1016 5.08789C49.1395 5.07236 49.1762 5.05482 49.2129 5.03711C49.1763 5.05485 49.1395 5.07232 49.1016 5.08789ZM95.6846 5.03418C95.6442 4.9916 95.6039 4.94895 95.5625 4.90723C95.6039 4.94895 95.6442 4.99159 95.6846 5.03418ZM49.2705 5.00879C49.3153 4.98531 49.3585 4.95948 49.4014 4.93262C49.3586 4.9595 49.3153 4.98528 49.2705 5.00879ZM95.4619 4.80859C95.4198 4.76774 95.3771 4.7275 95.334 4.6875C95.3771 4.72751 95.4199 4.76774 95.4619 4.80859ZM95.2812 4.63867C95.229 4.59111 95.1758 4.54438 95.1221 4.49805C95.1758 4.54439 95.229 4.5911 95.2812 4.63867ZM95.0352 4.42383C94.9981 4.39285 94.9606 4.36245 94.9229 4.33203C94.9606 4.36245 94.9981 4.39285 95.0352 4.42383ZM94.7979 4.23242C94.7614 4.20418 94.7246 4.17617 94.6875 4.14844C94.7246 4.17618 94.7614 4.20417 94.7979 4.23242ZM94.5742 4.06543C94.5132 4.02142 94.4513 3.97823 94.3887 3.93555C94.4513 3.97824 94.5132 4.02141 94.5742 4.06543ZM94.3408 3.90332C94.2829 3.8644 94.2244 3.82589 94.165 3.78809C94.2244 3.82589 94.2829 3.8644 94.3408 3.90332ZM93.8262 3.58203C93.7722 3.55092 93.7171 3.52148 93.6621 3.49121C93.7171 3.52148 93.7722 3.55091 93.8262 3.58203ZM92.6758 3.00977C92.5847 2.97027 92.4924 2.93263 92.3994 2.89551C92.4924 2.93263 92.5847 2.97027 92.6758 3.00977ZM46.0254 2.86914C46.0223 2.90869 46.0218 2.94876 46.0205 2.98926C46.0218 2.94876 46.0223 2.90869 46.0254 2.86914ZM50.3965 2.98926C50.3951 2.94907 50.3939 2.90937 50.3906 2.87012C50.3939 2.90938 50.3951 2.94907 50.3965 2.98926ZM92.167 2.80664C92.141 2.79696 92.115 2.78685 92.0889 2.77734C92.115 2.78685 92.141 2.79696 92.167 2.80664ZM46.0527 2.6543C46.0454 2.69729 46.0402 2.74094 46.0352 2.78516C46.0402 2.74094 46.0454 2.69729 46.0527 2.6543ZM50.3809 2.78516C50.3756 2.74099 50.371 2.69725 50.3633 2.6543C50.371 2.69725 50.3756 2.74099 50.3809 2.78516ZM91.9307 2.72168C91.8785 2.70364 91.8262 2.68531 91.7734 2.66797C91.8262 2.6853 91.8785 2.70365 91.9307 2.72168ZM91.625 2.62109C91.5667 2.60284 91.5082 2.5848 91.4492 2.56738C91.5082 2.58479 91.5667 2.60285 91.625 2.62109ZM50.3506 2.59668C50.3407 2.549 50.3294 2.5022 50.3164 2.45605C50.3294 2.50219 50.3407 2.549 50.3506 2.59668ZM46.0957 2.4541C46.0842 2.49666 46.0754 2.54011 46.0664 2.58398C46.0754 2.54011 46.0843 2.49666 46.0957 2.4541ZM91.3213 2.53027C91.2556 2.51168 91.1896 2.49315 91.123 2.47559C91.1896 2.49314 91.2556 2.5117 91.3213 2.53027ZM90.9873 2.44141C90.9187 2.42416 90.8497 2.40778 90.7803 2.3916C90.8497 2.40776 90.9187 2.42418 90.9873 2.44141ZM46.1592 2.25879C46.1419 2.30419 46.1264 2.35041 46.1123 2.39746C46.1264 2.3504 46.1419 2.30419 46.1592 2.25879ZM50.2969 2.39062C50.284 2.35028 50.2702 2.31061 50.2549 2.27148C50.2702 2.31059 50.284 2.3503 50.2969 2.39062ZM90.6729 2.36621C90.6036 2.35072 90.534 2.33573 90.4639 2.32129C90.534 2.33571 90.6036 2.35074 90.6729 2.36621ZM90.2744 2.28418C90.2329 2.27627 90.1912 2.26829 90.1494 2.26074C90.1912 2.26829 90.2329 2.27627 90.2744 2.28418ZM89.957 2.22754C89.8813 2.215 89.8052 2.20279 89.7285 2.19141C89.8052 2.20277 89.8813 2.21501 89.957 2.22754ZM46.2344 2.08594C46.214 2.12718 46.1952 2.16916 46.1777 2.21191C46.1952 2.16916 46.214 2.12719 46.2344 2.08594ZM50.2285 2.20703C50.2085 2.16083 50.1866 2.11573 50.1631 2.07129C50.1866 2.11571 50.2085 2.16085 50.2285 2.20703ZM88.9492 2.09668C89.1814 2.11856 89.4095 2.14602 89.6338 2.17773C89.4095 2.14599 89.1814 2.11859 88.9492 2.09668ZM88.1416 2.04199C88.4004 2.05348 88.6546 2.06997 88.9043 2.09277C88.5279 2.05835 88.1411 2.03698 87.7441 2.02832L88.1416 2.04199ZM50.1377 2.02441C50.114 1.98249 50.0885 1.94168 50.0615 1.90137C50.0885 1.94166 50.114 1.98251 50.1377 2.02441ZM46.3271 1.91895C46.3058 1.95336 46.2848 1.98787 46.2656 2.02344C46.2848 1.98786 46.3058 1.95336 46.3271 1.91895ZM46.373 1.84668C46.3708 1.84996 46.3684 1.85315 46.3662 1.85645C46.4021 1.80315 46.441 1.75157 46.4824 1.70117L46.373 1.84668ZM46.7891 1.39355V1.39453V1.39355ZM27.4951 27.1543C27.5764 27.1956 27.658 27.2358 27.7402 27.2744C27.658 27.2358 27.5764 27.1956 27.4951 27.1543ZM59.0264 27.1543C59.1076 27.1956 59.1892 27.2358 59.2715 27.2744C59.1892 27.2358 59.1076 27.1956 59.0264 27.1543ZM105.308 27.1543C105.389 27.1956 105.47 27.2358 105.553 27.2744C105.47 27.2358 105.389 27.1956 105.308 27.1543ZM91.7598 19.1943C91.8548 19.1642 91.9488 19.133 92.042 19.1006C91.9488 19.133 91.8547 19.1642 91.7598 19.1943ZM92.0771 19.0879C92.1694 19.0555 92.2611 19.0229 92.3516 18.9883C92.2611 19.0229 92.1694 19.0555 92.0771 19.0879ZM22.5547 17.8682C22.5505 17.9456 22.5476 18.0235 22.5449 18.1016C22.5476 18.0235 22.5505 17.9456 22.5547 17.8682ZM54.0859 17.8682C54.0818 17.9456 54.0788 18.0235 54.0762 18.1016C54.0788 18.0235 54.0818 17.9456 54.0859 17.8682ZM100.367 17.8682C100.363 17.9456 100.36 18.0235 100.357 18.1016C100.36 18.0235 100.363 17.9456 100.367 17.8682ZM22.7041 16.5645C22.6877 16.6577 22.6722 16.7514 22.6582 16.8457C22.6722 16.7514 22.6877 16.6577 22.7041 16.5645ZM54.2354 16.5645C54.2189 16.6577 54.2034 16.7514 54.1895 16.8457C54.2034 16.7514 54.2189 16.6577 54.2354 16.5645ZM100.517 16.5645C100.5 16.6577 100.485 16.7514 100.471 16.8457C100.485 16.7514 100.5 16.6577 100.517 16.5645ZM92.792 15.0781C92.8357 15.0402 92.8769 14.9999 92.9189 14.9609C92.8769 14.9999 92.8357 15.0402 92.792 15.0781ZM96.9434 15.0312C96.9795 14.9624 97.0147 14.8931 97.0488 14.8232C97.0147 14.8931 96.9796 14.9624 96.9434 15.0312ZM23.4053 14.2568C23.3765 14.3215 23.3476 14.386 23.3203 14.4512C23.3476 14.386 23.3765 14.3215 23.4053 14.2568ZM54.9365 14.2568C54.9078 14.3215 54.8789 14.386 54.8516 14.4512C54.8789 14.386 54.9078 14.3215 54.9365 14.2568ZM101.218 14.2568C101.189 14.3215 101.16 14.386 101.133 14.4512C101.16 14.386 101.189 14.3215 101.218 14.2568ZM97.8477 9.87695C97.8399 9.80069 97.8318 9.72481 97.8223 9.64941C97.8318 9.7248 97.8399 9.80069 97.8477 9.87695ZM97.1709 7.27637C97.1354 7.19659 97.0986 7.11754 97.0605 7.03906C97.0986 7.11754 97.1354 7.1966 97.1709 7.27637ZM96.6201 6.24805L96.4697 6.01465C96.4683 6.01255 96.4663 6.01089 96.4648 6.00879C96.5178 6.08754 96.57 6.16704 96.6201 6.24805ZM94.0762 3.73242C94.0052 3.68837 93.9333 3.64503 93.8604 3.60254C93.9333 3.64504 94.0052 3.68836 94.0762 3.73242ZM92.8301 3.08008C92.7787 3.05677 92.7278 3.0323 92.6758 3.00977C92.7278 3.0323 92.7787 3.05677 92.8301 3.08008Z" fill="url(#paint0_linear_4_1281)"/>
<defs>
<linearGradient id="paint0_linear_4_1281" x1="-7.68013e-08" y1="1.5" x2="142" y2="28.5" gradientUnits="userSpaceOnUse">
<stop stop-color="#DFEDAC"/>
<stop offset="1" stop-color="#BFF009"/>
</linearGradient>
</defs>
</svg>
