<svg width="22" height="12" viewBox="0 0 22 12" fill="none" xmlns="http://www.w3.org/2000/svg">
<path d="M11.8701 0H16.4787C17.5094 0 18.3928 0.181596 19.129 0.544787C19.875 0.907978 20.4444 1.41841 20.837 2.07608C21.2297 2.73375 21.426 3.5043 21.426 4.38774C21.426 5.281 21.2297 6.06137 20.837 6.72885C20.4444 7.38652 19.875 7.89695 19.129 8.26015C18.3928 8.62334 17.5094 8.80493 16.4787 8.80493H14.5499V12H11.8701V0ZM16.3609 6.43437C17.1168 6.43437 17.7008 6.25769 18.1131 5.90431C18.5352 5.55094 18.7462 5.04541 18.7462 4.38774C18.7462 3.73007 18.5352 3.22946 18.1131 2.8859C17.7008 2.54234 17.1168 2.37056 16.3609 2.37056H14.5499V6.43437H16.3609Z" fill="url(#paint0_linear_10_1485)"/>
<path d="M4.31412 7.42088L2.67976 9.30555V12H0V0H2.67976V5.654L7.47978 0H10.7632L6.05155 5.43314L11.0135 12H7.67119L4.31412 7.42088Z" fill="url(#paint1_linear_10_1485)"/>
<defs>
<linearGradient id="paint0_linear_10_1485" x1="-1.06008" y1="-0.368073" x2="18.9627" y2="-2.39652" gradientUnits="userSpaceOnUse">
<stop stop-color="#F0FFB9"/>
<stop offset="1" stop-color="#BFF009"/>
</linearGradient>
<linearGradient id="paint1_linear_10_1485" x1="-1.06012" y1="-0.368073" x2="18.9627" y2="-2.39652" gradientUnits="userSpaceOnUse">
<stop stop-color="#F0FFB9"/>
<stop offset="1" stop-color="#BFF009"/>
</linearGradient>
</defs>
</svg>
